<svg width="512" height="512" viewBox="0 0 512 512" fill="none" xmlns="http://www.w3.org/2000/svg">
<g clip-path="url(#clip0_3_18)">
<path d="M341.585 271.692C341.585 290.597 338.403 308.378 332.039 325.037C325.675 341.508 316.316 355.92 303.963 368.274C291.609 380.44 276.167 390.08 257.637 397.192C239.294 404.305 218.05 407.861 193.904 407.861C178.743 407.861 164.705 405.802 151.79 401.685C139.062 397.754 127.645 392.887 117.537 387.085C107.617 381.283 99.1004 375.106 91.9878 368.555C84.8752 361.816 79.5407 355.92 75.9844 350.867C75.0485 344.877 74.2998 339.262 73.7383 334.021C73.3639 328.593 73.1768 323.82 73.1768 319.702C73.1768 302.856 75.7972 288.725 81.0381 277.307C86.279 265.889 92.9237 256.718 100.972 249.792C109.021 242.68 117.911 237.626 127.645 234.631C137.565 231.449 147.111 229.858 156.282 229.858C164.518 229.858 172.473 230.981 180.147 233.228C187.821 235.474 194.934 238.843 201.485 243.335C208.223 247.64 214.213 253.068 219.454 259.619C224.694 265.983 229 273.376 232.369 281.799C234.802 281.799 236.861 281.051 238.545 279.553C240.417 278.056 241.353 275.716 241.353 272.534C241.353 269.727 240.043 265.702 237.422 260.461C234.802 255.221 230.778 249.886 225.35 244.458C220.109 238.843 213.464 233.695 205.416 229.016C197.554 224.15 188.289 220.78 177.62 218.909V57.1899C181.551 54.1951 186.324 51.2004 191.939 48.2056C197.741 45.2108 204.105 42.5903 211.031 40.3442C217.956 38.0981 225.256 36.32 232.93 35.0098C240.604 33.5124 248.372 32.7637 256.233 32.7637C264.095 32.7637 272.892 33.4188 282.625 34.729C292.545 36.0392 301.81 38.6597 310.42 42.5903C319.218 46.3338 326.611 51.5747 332.601 58.313C338.59 65.0513 341.585 73.7549 341.585 84.4238V271.692Z" fill="#FF2929"/>
<path d="M434.585 353.692C434.585 372.597 431.403 390.378 425.039 407.037C418.675 423.508 409.316 437.92 396.963 450.274C384.609 462.44 369.167 472.08 350.637 479.192C332.294 486.305 311.05 489.861 286.904 489.861C271.743 489.861 257.705 487.802 244.79 483.685C232.062 479.754 220.645 474.887 210.537 469.085C200.617 463.283 192.1 457.106 184.988 450.555C177.875 443.816 172.541 437.92 168.984 432.867C168.049 426.877 167.3 421.262 166.738 416.021C166.364 410.593 166.177 405.82 166.177 401.702C166.177 384.856 168.797 370.725 174.038 359.307C179.279 347.889 185.924 338.718 193.972 331.792C202.021 324.68 210.911 319.626 220.645 316.631C230.565 313.449 240.111 311.858 249.282 311.858C257.518 311.858 265.473 312.981 273.147 315.228C280.821 317.474 287.934 320.843 294.485 325.335C301.223 329.64 307.213 335.068 312.454 341.619C317.694 347.983 322 355.376 325.369 363.799C327.802 363.799 329.861 363.051 331.545 361.553C333.417 360.056 334.353 357.716 334.353 354.534C334.353 351.727 333.043 347.702 330.422 342.461C327.802 337.221 323.778 331.886 318.35 326.458C313.109 320.843 306.464 315.695 298.416 311.016C290.554 306.15 281.289 302.78 270.62 300.909V139.19C274.551 136.195 279.324 133.2 284.939 130.206C290.741 127.211 297.105 124.59 304.031 122.344C310.956 120.098 318.256 118.32 325.93 117.01C333.604 115.512 341.372 114.764 349.233 114.764C357.095 114.764 365.892 115.419 375.625 116.729C385.545 118.039 394.81 120.66 403.42 124.59C412.218 128.334 419.611 133.575 425.601 140.313C431.59 147.051 434.585 155.755 434.585 166.424V353.692Z" fill="#7CA0FF"/>
</g>
<defs>
<clipPath id="clip0_3_18">
<rect width="512" height="512" fill="white"/>
</clipPath>
</defs>
</svg>
